<?xml version="1.0" encoding="UTF-8" standalone="no"?>
<svg
   xmlns:dc="http://purl.org/dc/elements/1.1/"
   xmlns:cc="http://creativecommons.org/ns#"
   xmlns:rdf="http://www.w3.org/1999/02/22-rdf-syntax-ns#"
   xmlns:svg="http://www.w3.org/2000/svg"
   xmlns="http://www.w3.org/2000/svg"
   xmlns:sodipodi="http://sodipodi.sourceforge.net/DTD/sodipodi-0.dtd"
   xmlns:inkscape="http://www.inkscape.org/namespaces/inkscape"
   width="128"
   height="128"
   viewBox="0 0 33.866667 33.866666"
   version="1.1"
   id="svg8"
   sodipodi:docname="NewsPurifierLogo.svg"
   inkscape:version="1.0.2-2 (e86c870879, 2021-01-15)">
  <defs
     id="defs2">
    <filter
       style="color-interpolation-filters:sRGB"
       inkscape:label="Colorize"
       id="filter188">
      <feComposite
         in2="SourceGraphic"
         operator="arithmetic"
         k1="0"
         k2="1"
         result="composite1"
         id="feComposite174"
         k3="0"
         k4="0" />
      <feColorMatrix
         in="composite1"
         values="1"
         type="saturate"
         result="colormatrix1"
         id="feColorMatrix176" />
      <feFlood
         flood-opacity="1"
         flood-color="rgb(12,150,0)"
         result="flood1"
         id="feFlood178" />
      <feBlend
         in="flood1"
         in2="colormatrix1"
         mode="multiply"
         result="blend1"
         id="feBlend180" />
      <feBlend
         in2="blend1"
         mode="screen"
         result="blend2"
         id="feBlend182" />
      <feColorMatrix
         in="blend2"
         values="1"
         type="saturate"
         result="colormatrix2"
         id="feColorMatrix184" />
      <feComposite
         in="colormatrix2"
         in2="SourceGraphic"
         operator="in"
         result="composite2"
         id="feComposite186" />
    </filter>
  </defs>
  <sodipodi:namedview
     id="base"
     pagecolor="#ffffff"
     bordercolor="#666666"
     borderopacity="1.0"
     inkscape:pageopacity="0.0"
     inkscape:pageshadow="2"
     inkscape:zoom="0.7"
     inkscape:cx="-488.97136"
     inkscape:cy="-87.748721"
     inkscape:document-units="mm"
     inkscape:current-layer="layer1"
     inkscape:document-rotation="0"
     showgrid="false"
     inkscape:window-width="1920"
     inkscape:window-height="1001"
     inkscape:window-x="-9"
     inkscape:window-y="-9"
     inkscape:window-maximized="1" />
  <metadata
     id="metadata5">
    <rdf:RDF>
      <cc:Work
         rdf:about="">
        <dc:format>image/svg+xml</dc:format>
        <dc:type
           rdf:resource="http://purl.org/dc/dcmitype/StillImage" />
        <dc:title></dc:title>
      </cc:Work>
    </rdf:RDF>
  </metadata>
  <g
     inkscape:label="Layer 1"
     inkscape:groupmode="layer"
     id="layer1">
    <g
       id="g44"
       transform="matrix(0.02080429,0,0,0.02093479,0.35358014,0.28676245)"
       style="fill:#28a745">
      <path
         d="m 497,353.67187 c -30.4375,0 -59.02344,-11.74218 -80.5,-33.0664 -21.46875,-21.3125 -33.28906,-49.69922 -33.28906,-79.92969 0,-8.28516 -6.71875,-15 -15,-15 -8.28516,0 -15,6.71484 -15,15 0,30.23047 -11.82422,58.61719 -33.29297,79.92969 -21.47656,21.32422 -50.0625,33.0664 -80.5,33.0664 -8.28516,0 -15,6.71485 -15,15 0,8.28516 6.71484,15 15,15 62.74219,0 113.79297,50.83985 113.79297,113.32813 0,8.28516 6.71484,15 15,15 8.28125,0 15,-6.71484 15,-15 0,-62.48828 51.04687,-113.32813 113.78906,-113.32813 8.28516,0 15,-6.71484 15,-15 0,-8.28515 -6.71484,-15 -15,-15 z m -128.78906,79.6211 c -13.92969,-27.86328 -36.69922,-50.60156 -64.6211,-64.53906 13.69141,-6.78907 26.33203,-15.80469 37.46485,-26.85938 11.18359,-11.10156 20.29687,-23.71875 27.15234,-37.39062 6.85938,13.67187 15.97266,26.28906 27.15234,37.39062 11.13282,11.05469 23.77735,20.07031 37.46485,26.85938 -27.91797,13.9375 -50.6875,36.67578 -64.61328,64.53906 z m 0,0"
         fill="#05a232"
         data-original="#000000"
         class=""
         id="path36"
         style="fill:#28a745" />
      <path
         d="m 205.23437,236.38672 c -44.17578,0 -80.11718,-35.67578 -80.11718,-79.53125 0,-8.28125 -6.71485,-15 -15,-15 -8.28516,0 -15.000002,6.71875 -15.000002,15 0,43.85547 -35.941407,79.53125 -80.117188,79.53125 -8.285156,0 -15,6.71875 -15,15 0,8.28515 6.714844,15 15,15 44.175781,0 80.117188,35.78906 80.117188,79.77734 0,8.28125 6.714842,15 15.000002,15 8.28515,0 15,-6.71875 15,-15 0,-43.98828 35.9414,-79.77734 80.11718,-79.77734 8.28516,0 15,-6.71485 15,-15 0,-8.28125 -6.71484,-15 -15,-15 z m -95.11718,54.51172 C 100.55078,274.59766 86.886719,260.96094 70.546875,251.40625 86.886719,241.87109 100.55078,228.26562 110.11719,212 c 9.5664,16.26562 23.23047,29.87109 39.57031,39.40625 -16.33984,9.55469 -30.00391,23.1875 -39.57031,39.49219 z m 0,0"
         fill="#05a232"
         data-original="#000000"
         class=""
         id="path38"
         style="fill:#28a745" />
      <path
         d="m 229.63672,103.65625 c 32.48828,0 58.92187,26.23047 58.92187,58.46875 0,8.28125 6.71485,15 15,15 8.28516,0 15,-6.71875 15,-15 0,-32.34375 26.4336,-58.65625 58.92188,-58.65625 8.28515,0 15,-6.71875 15,-15 0,-8.285156 -6.71485,-15 -15,-15 -32.48828,0 -58.92188,-26.230469 -58.92188,-58.46875 0,-8.285156 -6.71484,-15 -15,-15 -8.28515,0 -15,6.714844 -15,15 0,32.34375 -26.43359,58.65625 -58.92187,58.65625 -8.28516,0 -15,6.714844 -15,15 0,8.285156 6.71484,15 15,15 z m 73.95703,-39.480469 c 6.47266,9.59375 14.78125,17.863281 24.42187,24.308594 -9.67578,6.480469 -18.00781,14.804685 -24.49218,24.464845 -6.47266,-9.59375 -14.78125,-17.863282 -24.42188,-24.308595 9.67578,-6.480469 18.01172,-14.804687 24.49219,-24.464844 z m 0,0"
         fill="#05a232"
         data-original="#000000"
         class=""
         id="path40"
         style="fill:#28a745" />
      <script
         id="script42" />
    </g>
    <g
       id="g112"
       style="fill:#4ab563;filter:url(#filter188)"
       transform="matrix(0.42581837,0,0,0.4521523,5.8675993,4.2127005)">
      <path
         d="M 50.33,12.57 H 36.58 a 2,2 0 0 0 -2,2 v 8.34 a 2,2 0 0 0 2,2 h 13.75 a 2,2 0 0 0 2,-2 v -8.34 a 2,2 0 0 0 -2,-2 z m -2,8.34 h -9.75 v -4.34 h 9.75 z M 21.06,14.57 a 2,2 0 0 1 2,-2 h 6.26 a 2,2 0 0 1 0,4 h -6.26 a 2,2 0 0 1 -2,-2 z m 0,8.34 a 2,2 0 0 1 2,-2 h 6.26 a 2,2 0 0 1 0,4 h -6.26 a 2,2 0 0 1 -2,-2 z m 31.26,8.34 a 2,2 0 0 1 -2,2 H 23.06 a 2,2 0 0 1 0,-4 h 27.26 a 2,2 0 0 1 2,2 z m 0,8.34 a 2,2 0 0 1 -2,2 H 23.06 a 2,2 0 0 1 0,-4 h 27.26 a 2,2 0 0 1 2,2 z m 0,8.34 a 2,2 0 0 1 -2,2 H 23.06 a 2,2 0 1 1 0,-4 h 27.26 a 2,2 0 0 1 2,2 z M 51.71,3 h -30 a 8.55,8.55 0 0 0 -8.55,8.55 v 2.07 H 12.32 A 8.56,8.56 0 0 0 3.77,22.17 V 52.49 A 8.56,8.56 0 0 0 12.29,61 h 39.42 a 8.56,8.56 0 0 0 8.55,-8.55 v -41 A 8.56,8.56 0 0 0 51.71,3 Z m 4.55,49.53 A 4.55,4.55 0 0 1 51.71,57 H 12.29 A 4.55,4.55 0 0 1 7.74,52.45 V 22.13 a 4.55,4.55 0 0 1 4.55,-4.55 h 0.84 V 49.7 a 1.85,1.85 0 0 1 -0.57,1.3 1.81,1.81 0 0 1 -1.37,0.5 2.0027544,2.0027544 0 0 0 -0.21,4 5.79,5.79 0 0 0 4.33,-1.59 5.87,5.87 0 0 0 1.82,-4.23 V 11.51 A 4.55,4.55 0 0 1 21.68,7 h 30 a 4.55,4.55 0 0 1 4.55,4.55 z"
         id="path110"
         style="fill:#4ab563" />
    </g>
  </g>
</svg>
